<svg width="262" height="200" viewBox="0 0 262 200" fill="none" xmlns="http://www.w3.org/2000/svg">
<g clip-path="url(#clip0_15_22)">
<path d="M248.297 46.1362C239.162 31.5709 226.475 20.2339 210.234 12.1505C193.969 4.06711 175.496 0 154.764 0H113.656C116.016 1.37265 118.274 2.77072 120.33 4.29588H139.361C160.27 4.29588 179.048 8.28673 195.694 16.2938C212.341 24.301 225.409 35.9176 234.899 51.1439C244.415 66.3955 249.16 84.5704 249.16 105.719C249.16 122.293 245.303 137.392 237.614 150.991C229.9 164.616 218.075 175.47 202.114 183.554C186.153 191.637 166.36 195.704 142.787 195.704H130.15C128.805 196.67 127.435 197.611 125.988 198.526C125.202 199.059 124.339 199.492 123.502 200H143.32C169.735 200 191.837 195.247 209.625 185.714C227.388 176.182 240.558 163.625 249.135 147.992C257.712 132.359 261.975 115.125 261.975 96.2888C261.975 77.453 257.407 60.727 248.297 46.1362Z" fill="black"/>
<path d="M143.726 145.424C143.726 132.283 139.488 122.191 131.038 115.15C122.563 108.109 112.641 103.381 101.222 101.017C89.8032 98.6274 76.9887 97.153 62.7277 96.5938C45.4218 95.8312 36.7688 94.967 36.7688 94.0264C36.7688 93.4418 39.281 92.7809 44.3307 92.0183C49.355 91.2557 53.0344 90.6965 55.3182 90.2898L67.5744 88.5867C85.6416 86.121 100.512 81.698 112.21 75.2923C123.908 68.9121 129.744 58.668 129.744 44.5857C129.744 36.5785 127.308 29.2069 122.461 22.4453C117.615 15.6838 110.053 10.2694 99.7757 6.1515C89.4987 2.05897 76.6842 0 61.2814 0H0V200H69.0208C91.8332 200 108.759 196.289 119.771 188.866C135.732 178.953 143.726 164.489 143.726 145.45V145.424ZM116.371 184.85C111.804 188.485 105.866 191.179 98.5577 192.984C91.2242 194.789 81.7846 195.704 70.1881 195.704H11.9771V4.29588H52.4761C77.1917 4.29588 94.8783 9.25267 105.536 19.1408C109.52 22.5724 112.666 26.8175 114.95 31.8505C117.234 36.909 118.376 41.9929 118.376 47.1276C118.376 58.7443 113.656 67.4123 104.267 73.1317C94.8529 78.851 82.5459 82.9436 67.3207 85.4092C64.6563 85.9939 60.1902 86.6548 53.9225 87.4174C45.371 88.7646 39.281 89.8577 35.6777 90.6965C32.049 91.5608 30.2474 92.6538 30.2474 93.9756C30.2474 95.6787 32.7088 96.9243 37.6569 97.6868C42.6051 98.4494 50.776 99.212 62.1695 99.9746C75.0855 100.941 86.4029 102.644 96.1216 105.109C105.815 107.6 114.087 112.405 120.939 119.548C127.79 126.69 131.216 136.833 131.216 149.975C131.216 165.404 126.268 177.021 116.397 184.825L116.371 184.85Z" fill="black"/>
</g>
<defs>
<clipPath id="clip0_15_22">
<rect width="262" height="200" fill="white"/>
</clipPath>
</defs>
</svg>
