<svg width="327" height="145" viewBox="0 0 327 145" fill="none" xmlns="http://www.w3.org/2000/svg">
<path d="M79.2282 36.2828C79.7215 33.7865 79.9307 31.5592 79.856 29.586C79.7812 27.6129 79.4823 25.8789 78.9591 24.3841C78.4359 22.8893 77.7932 21.544 77.0608 20.4228C75.3866 17.8966 72.7259 15.5647 69.8858 14.6678C66.3432 13.5617 61.4852 13.9204 56.8066 14.9219C52.1279 15.9235 47.823 17.209 43.9216 18.7636C39.3177 20.5873 34.7138 22.8594 30.3341 25.565C25.9245 28.3005 22.0829 31.1556 18.8542 33.906C15.6106 36.6565 12.8751 39.3023 10.618 41.7986C8.3609 44.295 6.50737 46.597 5.08734 48.7047C3.65235 50.8124 2.60601 52.5613 1.88852 53.9515C1.42514 54.8782 1.06639 55.6555 0.797334 56.2983C0.543222 56.9411 0.378797 57.554 0.229319 58.0323C0.0648942 58.5704 0.0200508 59.1534 0.0200508 59.4972C0.0200508 61.0518 -0.144374 62.8306 0.468484 63.9368C1.08134 65.043 1.91842 65.9099 2.96476 66.5079C4.0111 67.1058 5.23682 67.4645 6.62696 67.614C8.0171 67.7486 9.39229 67.7486 10.7226 67.614C12.5762 67.4048 14.2204 66.9713 15.4611 66.6424C16.1188 66.463 16.8811 66.1491 17.4043 65.9847C18.1517 65.7455 19.0037 65.4765 19.4521 64.9533C19.6165 64.7589 19.7959 64.4749 19.8109 64.2657C19.8109 64.0265 19.6166 63.7574 19.3774 63.6528L19.0336 63.4884C17.3594 62.9951 15.8647 62.3224 14.5792 61.5899C13.4581 60.9621 12.3968 60.14 11.5298 59.0936C10.6628 58.0472 10.2144 56.6421 10.4685 55.237C10.8422 53.0695 12.1576 50.3639 13.9065 47.6284C15.3863 45.3115 17.6285 42.5461 20.5882 39.392C23.5478 36.2379 27.6883 32.7251 32.935 29.5262C37.0606 27 41.3057 25.1614 45.1473 24.0104C48.376 23.0537 51.7094 22.7099 55.0278 22.9192C58.3462 23.1285 61.0069 24.713 62.5315 27.5083C63.7124 29.6757 64.3552 32.5757 64.4449 35.7447C64.5345 38.525 64.0263 42.0229 63.0099 46.1635C62.0084 50.3041 59.9456 55.4313 56.7019 61.0219C55.1922 63.6229 53.1294 66.3135 50.8424 69.049C48.8842 71.381 46.5225 73.8623 43.7572 76.4185C40.9918 78.9746 37.793 81.6653 34.4298 83.5188C34.071 83.7131 33.8169 83.6982 33.787 83.4889L33.7272 83.175L37.3446 64.8038C38.5105 58.8843 39.6166 53.5329 40.5882 48.8392C41.7093 43.4429 42.5165 37.7926 43.8319 33.2782C44.0561 32.5308 44.0412 31.9927 43.5628 31.7535C43.3237 31.6339 43.0546 31.6489 42.7557 31.7535C41.3057 32.3215 39.7512 33.0988 38.3311 34.0107C37.1204 34.8029 35.7751 35.7596 34.4298 36.9106C33.0845 38.0766 31.9484 39.3621 31.0217 40.7822L30.2892 42.1126C30.0501 42.561 29.796 43.0842 29.5269 43.712C29.2578 44.3249 29.0187 45.0274 28.8393 45.7599C25.6853 59.2281 22.9648 73.3392 20.0799 87.0765C18.9439 92.5475 17.7929 98.0633 16.6868 103.594C15.5956 109.14 14.5493 114.387 13.5777 119.394C12.6061 124.387 11.7391 128.871 10.9469 132.818C10.1696 136.779 9.63145 139.888 9.22786 141.921C9.12323 142.429 9.07839 142.893 9.15313 143.311C9.28765 144.118 9.75104 144.193 10.4835 143.73C11.4401 143.117 12.7256 142.37 14.0111 141.428C15.1173 140.606 16.3878 139.589 17.8228 138.423C19.2429 137.257 20.7675 135.688 22.3669 134.073C22.621 133.819 23.219 133.072 24.1158 131.831C25.0127 130.59 25.5957 129.111 25.8199 127.451C26.059 125.687 26.3729 123.49 26.8363 120.934C27.2847 118.363 27.8079 115.523 28.3759 112.428L30.1697 102.637C30.7975 99.2293 31.2758 95.6268 31.9634 92.3083C32.0082 92.0691 32.2325 91.7403 32.5912 91.3367C32.7706 91.1424 32.9798 90.9929 33.1592 90.9032C41.5449 86.06 49.0038 79.4081 54.6541 73.9221C60.3043 68.4362 64.7588 63.5332 68.0024 59.1684C71.7394 54.1458 74.5944 49.2578 76.5077 44.6388C77.7782 41.5894 78.72 38.809 79.2132 36.3127L79.2282 36.2828Z" fill="black"/>
<path d="M97.9428 26.9253C99.3927 20.6022 100.783 14.1297 102.188 7.98603C102.427 6.96956 102.696 5.99793 102.92 5.13094C103.16 4.26395 103.309 3.53149 103.444 2.97841C103.608 2.30575 103.802 1.61813 103.937 1.08C104.056 0.631558 103.922 0.168166 103.593 0.0485813C103.414 -0.0261592 103.204 0.00373704 103.1 0.0186852C101.59 0.392388 100.08 0.85578 98.7798 1.49855C97.4794 2.14132 95.9398 2.93357 94.6244 3.93509C93.6827 4.63765 92.8456 5.60928 92.1281 6.46132C91.7693 6.89482 91.5152 7.29841 91.3508 7.67212L91.1565 8.37468C91.0817 8.61385 90.9921 8.88291 90.8874 9.18188C90.7678 9.48084 90.6184 9.82465 90.4838 10.1983C90.2596 10.8561 89.9756 11.9473 89.5571 13.3076C89.1385 14.6678 88.7349 16.2673 88.3463 18.0461C87.9577 19.8399 87.4943 21.7831 87.001 23.8908C86.4928 25.9985 85.9846 28.1062 85.4913 30.2139C84.3702 35.072 83.279 40.6028 81.9337 46.313C81.1116 49.8258 80.1549 53.5927 79.3179 57.4493C78.6004 60.7379 77.8081 64.4002 77.001 68.4362C76.1788 72.4722 75.4165 76.5978 74.5794 80.6488C74.2356 82.2931 73.9217 83.9523 73.6228 85.4172C73.3537 86.7028 73.0099 88.1228 72.7259 89.5878C72.4419 91.0676 72.2775 92.4578 72.128 93.6536C71.5899 98.0334 71.1564 102.533 71.4703 106.658C71.7244 110.126 72.5465 113.699 73.8769 117.302C75.2072 120.919 77.6138 123.789 81.1116 125.927L81.7693 126.001C82.2177 126.061 82.5615 125.867 82.8007 125.448C82.8904 125.314 82.8904 124.985 82.8007 124.477C82.7708 124.267 82.6213 124.073 82.5466 123.924C81.859 122.623 81.6796 120.276 81.4853 118.288C81.3059 116.3 81.1863 114.402 81.2461 112.683C81.3059 110.724 81.4255 108.632 81.6647 106.658C81.859 104.969 82.1878 102.667 82.5167 99.8422C82.8306 97.017 83.3239 94.0572 83.8321 91.0676C84.1609 89.1543 84.5944 86.5682 85.1923 83.4441C85.7902 80.3199 86.4629 77.2556 87.1206 74.3407C87.868 71.0073 88.6752 67.4197 89.5272 63.8023C90.9173 57.9127 92.3224 51.5747 93.8471 45.0125C95.3717 38.4503 96.717 32.3514 97.9727 26.8954L97.9428 26.9253Z" fill="black"/>
<path d="M152.427 95.1186C153.892 93.9825 155.028 92.8614 155.82 91.7552C156.613 90.6491 156.942 89.7074 156.822 88.96C156.702 88.2873 156.254 88.0332 155.477 88.1976C155.297 88.2275 155.163 88.2873 155.043 88.3471C154.909 88.4069 154.804 88.4667 154.729 88.4816L154.49 88.661C153.145 89.6326 151.829 90.395 150.589 90.9182C149.333 91.4413 148.137 91.83 147.016 92.0841C142.965 92.981 139.856 92.7717 137.689 91.3965C135.521 90.0063 134.161 87.6744 133.593 84.4157C133.249 82.4127 133.13 80.4993 133.279 78.7354C133.369 77.7638 133.548 76.8669 133.653 76.1644C134.146 72.6964 134.789 68.4063 136.03 63.9069C137.27 59.3926 138.526 54.8932 139.692 50.4835C140.29 48.1965 140.888 45.9542 141.366 43.8765C141.785 42.0827 142.098 40.1992 142.353 38.3307C142.622 36.4622 142.622 34.8478 142.397 33.5174C142.278 32.8447 141.979 31.918 141.515 30.7072C141.037 29.5113 140.17 28.3902 138.915 27.3588C137.659 26.3274 135.895 25.58 133.623 25.1465C131.351 24.713 128.361 24.9223 124.669 25.8341C121.157 26.7011 118.167 27.9119 115.701 29.4366C113.234 30.9762 111.261 32.5906 109.766 34.2798C108.272 35.9689 107.21 37.6132 106.598 39.1977C105.97 40.7822 105.76 42.1126 105.955 43.2038C106.104 44.0409 106.463 44.3697 107.061 44.2053C107.225 44.1605 107.539 43.996 107.988 43.7419C108.436 43.4878 109.034 42.86 109.781 42.1126C110.678 41.2157 111.844 40.3487 112.95 39.5116C113.892 38.809 115.013 38.0915 116.269 37.3591C117.524 36.6266 118.84 36.0885 120.215 35.7297C122.098 35.2514 123.847 35.2215 125.432 35.655C127.031 36.0885 128.033 37.4338 128.406 39.691C128.645 41.0214 128.481 42.9796 127.943 45.5506C127.405 48.1217 126.613 50.9469 125.581 53.9963C124.55 57.0607 123.324 60.2147 121.919 63.4585C120.514 66.7172 119.049 69.7217 117.509 72.4722C115.97 75.2226 114.43 77.5695 112.891 79.4978C111.351 81.4411 109.991 82.5921 108.795 82.9508C108.287 83.1003 107.748 83.1302 107.21 83.0405C106.657 82.9508 106.269 82.1885 106.015 80.7684C105.835 79.7669 105.94 78.0179 106.299 75.5216C106.672 73.0402 107.435 70.3197 108.571 67.3898C109.707 64.46 111.366 61.59 113.518 58.7947C115.671 55.9994 118.436 53.7871 121.829 52.2026C122.248 52.0082 122.607 51.6495 122.92 51.1263C123.234 50.6181 123.339 50.0949 123.264 49.6016C123.16 49.0186 122.786 48.7047 122.173 48.7047C121.814 48.7047 121.5 48.7495 121.246 48.8093C116.119 50.1547 111.784 51.9783 108.242 54.2504C104.699 56.5076 101.769 58.989 99.4226 61.6647C97.0758 64.3404 95.2671 67.0909 93.9667 69.9011C92.6812 72.7114 91.7544 75.3721 91.2013 77.8535C90.6632 80.3349 90.3493 82.5771 90.2895 84.5353C90.2297 86.5085 90.2895 87.9883 90.4539 88.9898C90.8725 91.4114 91.6199 93.1155 92.6662 94.0722C93.7125 95.0438 94.8187 95.7016 95.9398 96.0155C97.2253 96.3892 98.7649 96.3593 100.319 95.8809C103.309 94.999 106.089 93.2501 108.541 90.9182C110.992 88.5862 113.115 86.1348 114.908 83.6235C116.971 80.7385 119.079 77.5097 120.514 74.1613C120.708 73.7129 120.917 73.399 121.172 73.3242C121.261 73.2943 121.321 73.3691 121.351 73.5485C121.351 73.6381 121.351 73.6979 121.321 73.7577C121.291 73.8175 121.276 73.8773 121.291 73.967L121.336 74.2211C119.692 79.2138 119.258 83.9075 120.006 88.2424C120.828 93.0109 123.01 96.6134 126.583 99.1097C130.14 101.606 134.789 102.114 140.559 100.724C142.965 100.141 145.193 99.3489 147.211 98.3324C149.228 97.3159 150.962 96.2397 152.427 95.1036V95.1186Z" fill="black"/>
<path d="M196.105 25.9537C196.852 23.8011 197.48 22.0672 197.839 20.8564C198.018 20.2734 198.063 19.81 198.018 19.5708C197.898 18.8982 197.3 18.4796 196.254 18.2853C195.193 18.091 194.042 18.0611 192.801 18.1956C192.099 18.2703 191.142 18.4348 189.931 18.7038C188.72 18.9729 187.375 19.3765 185.985 19.9894C185.492 20.1986 185.088 20.4827 184.789 20.7816C184.475 21.0806 184.176 21.4094 183.877 21.7981C183.593 22.1718 183.369 22.68 183.205 23.2929C182.398 26.1928 181.157 29.7206 179.587 33.8463C178.003 37.9719 176.209 42.2172 174.191 46.597C172.173 50.9917 169.931 55.2819 167.48 59.4972C165.028 63.7126 162.502 67.5842 159.871 70.3197C159.662 70.5439 159.363 70.7681 159.049 71.0073C158.421 71.4856 157.764 71.8593 157.211 72.0237C156.089 72.3227 155.252 71.5902 154.983 70.0057C154.879 69.4228 154.909 68.5558 155.073 67.3898C155.237 66.2388 155.462 65.0878 155.761 63.9518C156.06 62.8157 156.344 61.2312 156.807 59.5271C157.943 55.4313 159.513 51.1263 160.723 47.1351C161.74 43.7718 162.726 40.274 163.623 36.6715C164.52 33.069 165.193 30.0345 165.432 27.7175C165.462 27.3737 165.581 26.9851 165.656 26.6413C165.716 26.3423 165.716 25.9387 165.746 25.5949C165.776 25.2511 165.761 24.9521 165.731 24.698C165.551 23.6965 164.909 23.0687 163.788 22.8295C162.667 22.5903 161.366 22.5903 159.886 22.8594C158.406 23.1285 156.956 23.5171 155.521 24.0403C154.087 24.5635 152.771 25.1016 151.605 25.565C150.693 25.9238 150.14 26.3423 150.006 26.8505C149.871 27.3588 149.856 27.9418 149.976 28.6144C150.35 30.7819 150.379 33.0241 150.066 35.3411C149.752 37.658 149.243 40.0497 148.556 42.5311C147.868 45.0125 147.076 47.5985 146.194 50.3041C145.312 53.0097 144.535 55.8947 143.788 58.8843C142.861 62.6363 141.814 66.4331 140.783 70.2001C139.737 73.967 139.483 77.4798 140.051 80.7385C140.29 82.0838 140.693 83.1302 141.261 83.9075C141.844 84.6848 142.502 85.2528 143.234 85.5966C143.967 85.9404 144.744 86.1348 145.551 86.1646C146.359 86.1945 147.151 86.1348 147.928 85.9554C150.006 85.492 152.084 84.4755 154.191 82.9209C156.299 81.3514 158.272 79.5426 160.11 77.5097C161.949 75.4767 163.683 73.3093 165.312 71.0372C166.942 68.7651 168.317 66.6723 169.468 64.759C170.619 62.8456 171.531 61.2461 172.203 59.9756C172.876 58.705 173.264 58.0323 173.324 57.9277C173.399 57.838 173.459 57.6586 173.519 57.5091C173.653 57.2401 173.922 57.0607 174.102 57.0308C174.371 56.9859 174.52 57.1354 174.58 57.4643C174.67 57.9725 174.505 59.0189 174.116 60.6333C173.728 62.2327 173.264 64.0116 172.756 65.9399C172.233 67.8682 171.71 69.7068 171.157 71.4258C170.604 73.1598 170.245 74.3407 170.081 74.9685C168.122 82.5173 165.835 89.6924 163.429 96.3742C162.397 99.2442 161.291 102.144 160.095 105.074C158.9 108.004 157.659 110.799 156.374 113.46C155.088 116.121 153.728 118.557 152.323 120.784C150.918 123.012 149.258 124.835 148.018 126.226C147.196 127.137 146.867 128.109 146.971 128.692C147.076 129.275 147.509 129.484 148.287 129.305C150.006 128.901 151.949 128.049 154.101 126.779C156.254 125.523 158.451 123.939 160.678 122.04C162.906 120.142 165.028 118.004 167.046 115.627C169.049 113.251 170.768 110.724 172.188 108.064C173.877 104.91 175.447 101.202 176.852 96.9273C178.272 92.6521 179.543 88.5713 180.664 84.7147C181.964 80.2303 183.085 75.6412 184.072 70.9624C185.955 62.8755 186.897 58.8545 188.795 50.8124C189.453 47.9124 190.215 44.9378 191.082 41.8883C191.949 38.8389 192.816 35.9689 193.698 33.2782C194.58 30.5876 195.387 28.166 196.135 25.9985L196.105 25.9537Z" fill="black"/>
<path d="M286.12 14.9519C285.985 14.2942 285.612 13.8158 284.999 13.5169C284.386 13.2328 283.639 13.0834 282.727 13.0983C280.395 13.1282 278.138 13.7261 275.955 14.907C273.773 16.073 271.71 17.5827 269.767 19.4064C267.824 21.245 265.985 23.2481 264.251 25.4305C262.517 27.6129 260.978 29.7057 259.662 31.7087C258.332 33.7118 257.241 35.5055 256.374 37.09C255.522 38.6745 254.819 39.7807 254.58 40.274C254.52 40.4235 254.461 40.5879 254.401 40.6776C254.251 40.857 254.057 40.9616 253.818 40.9765C253.564 40.9915 253.399 40.8868 253.355 40.6327L253.28 40.259C253.28 40.1843 253.325 40.0797 253.355 40.0049C254.804 37.1797 255.477 32.785 256.284 29.616C256.972 26.8954 257.555 24.2048 258.093 21.6636C258.616 19.1224 258.795 17.4034 258.616 16.4766C258.482 15.8039 257.899 15.3854 256.852 15.206C255.806 15.0266 254.565 14.9818 253.145 15.0864C252.144 15.1612 251.142 15.2807 250.156 15.4452C249.169 15.6096 248.257 15.7591 247.435 15.9086C246.613 16.058 245.567 16.2823 244.505 16.641C243.728 16.9101 243.22 17.3436 243.041 17.7771C242.861 18.2106 242.801 18.5992 242.861 18.943C242.921 19.2868 243.011 19.526 243.13 19.6904C243.25 19.8549 243.34 20.1389 243.414 20.5574C243.638 21.7234 243.564 23.3677 243.22 25.4753C242.876 27.583 242.353 30.0196 241.635 32.785C240.918 35.5504 240.081 38.5848 239.094 41.8884C238.108 45.177 237.121 48.5403 236.135 51.9484L235.925 52.666C233.788 56.1489 231.949 60.2148 229.812 62.5168C227.659 64.8188 225.656 66.6125 223.818 67.8233C221.71 69.1986 219.528 70.0506 217.435 70.4243C215.671 70.7532 214.102 70.7681 212.786 70.4094C211.471 70.0506 210.38 69.4975 209.483 68.7501C208.586 68.0027 207.913 67.0759 207.45 65.9847C206.987 64.8935 206.673 63.7575 206.463 62.6513C205.955 60.0503 205.447 55.7453 206.613 53.1592C206.703 52.9649 206.942 52.8154 207.046 52.8005L207.375 52.7706C210.858 52.1577 214.057 51.1861 216.972 49.8408C219.887 48.4954 222.428 47.1651 224.565 45.8197C227.091 44.2203 229.319 42.4415 231.232 40.5879C234.117 37.8075 236.045 35.1767 236.867 32.7401C237.704 30.3036 238.018 28.1212 237.928 26.3124C237.824 24.1749 237.331 21.9177 236.209 20.2435C234.939 18.3451 232.876 17.0895 230.724 16.6261C228.571 16.1627 226.449 16.1178 224.386 16.4467C222.009 16.8353 219.423 17.4482 216.972 18.4497C213.593 19.8549 210.544 21.9027 207.988 24.1749C205.432 26.432 203.235 28.9134 201.396 31.5742C199.558 34.2349 198.078 36.9555 196.912 39.7209C195.746 42.4863 194.789 45.0723 194.146 47.4341C192.652 52.8304 192.158 57.853 192.427 62.1431C192.547 63.9817 192.846 65.8502 193.384 67.6589C193.907 69.4676 194.714 71.1119 195.791 72.6067C196.867 74.0866 198.287 75.2974 200.036 76.2391C201.785 77.1809 204.027 77.7788 206.628 77.8834C210.066 78.018 213.668 77.3901 217.136 76.1793C220.096 75.1479 223.31 73.4887 226.748 71.2764C228.631 70.0656 230.44 68.4661 232.144 66.5229C231.71 68.7352 231.322 70.813 230.694 72.1434C230.649 72.2181 230.634 72.3975 230.634 72.532C230.634 72.6815 230.574 73.0103 230.634 73.4139C230.709 73.8325 230.963 74.266 231.396 74.6995C231.83 75.133 232.697 75.3124 233.788 75.3721C234.221 75.402 234.67 75.4469 235.073 75.417L236.344 75.3273C241.905 74.9536 245.148 73.115 246.239 70.1702C246.464 69.5573 246.718 68.9295 246.972 68.2718C247.211 67.6141 247.435 66.9414 247.674 66.2388C247.899 65.5512 248.108 64.8038 248.332 64.0265C248.855 62.2178 249.857 59.7065 251.247 56.5525C252.637 53.3984 254.236 50.0949 256 46.6568C257.779 43.2188 259.677 39.8554 261.695 36.5818C263.713 33.3082 265.746 30.2288 267.689 28.7041C267.809 28.5995 268.033 28.45 268.242 28.2856C268.377 28.1959 268.586 28.0913 268.825 28.0016C269.065 27.8969 269.259 27.8521 269.438 27.8372C269.767 27.8222 269.976 27.9866 270.036 28.3155C270.096 28.5696 270.051 28.9732 269.887 29.4665C269.408 30.9015 269.02 32.2468 268.96 33.3829C268.885 34.5339 268.96 35.5653 269.139 36.4921C269.453 38.0766 270.111 39.3023 271.112 40.1843C272.099 41.0513 273.13 41.694 274.207 42.1126C275.268 42.5311 276.24 42.7703 277.121 42.86C277.988 42.9497 278.512 42.9945 278.691 42.9796C279.543 42.9497 280.021 42.4564 280.216 41.6492C280.29 41.3203 280.246 40.8121 280.186 40.259C280.006 38.6745 280.47 36.2529 281.127 33.5324C281.77 30.8118 282.503 28.1511 283.295 25.5351C284.087 22.9192 284.775 20.6023 285.343 18.5843C285.911 16.5663 286.165 15.3555 286.075 14.9369L286.12 14.9519ZM211.994 35.954C213.295 32.8747 214.864 29.8551 216.658 26.9702C218.437 24.0852 220.649 22.1718 222.771 21.0358C223.145 20.8414 223.564 20.677 223.997 20.6471C224.849 20.5873 225.582 20.961 226.12 21.7383C226.568 22.396 226.792 23.4125 226.777 24.6383C226.777 25.7743 226.508 27.2093 226 28.9433C225.507 30.6773 224.595 32.9793 223.205 35.6999C222.188 37.7179 220.903 39.6013 219.453 41.3353C218.197 42.86 216.658 44.2651 214.879 45.5806C213.085 46.896 210.888 47.8676 208.526 48.1666C208.227 48.2114 208.033 48.1068 207.988 47.8975L207.928 47.5985C209.154 43.3533 210.499 39.4369 211.964 35.954H211.994Z" fill="black"/>
<path d="M326.24 19.6456C326.03 18.7188 325.104 17.8668 323.504 17.1343C322.383 16.6261 321.068 16.073 319.618 15.5647C318.362 15.1312 316.853 14.6828 315.163 14.2344C313.474 13.771 311.591 13.4421 309.543 13.2478C306.135 12.9189 302.951 13.0983 300.021 13.7859C297.077 14.4586 294.565 15.5498 292.458 17.0147C290.35 18.4796 288.811 20.3332 287.824 22.5605C286.837 24.7877 286.628 27.2841 287.226 30.0345C287.51 31.3798 288.093 32.77 288.96 34.2349C289.827 35.6998 291.172 37.1648 292.921 38.6745C294.924 40.4085 296.748 41.9332 298.392 43.1739C300.036 44.4146 301.486 45.5955 302.772 46.7017C304.042 47.8228 305.104 48.9887 305.926 50.1846C306.748 51.3804 307.346 52.7706 307.719 54.3551C307.929 55.2819 308.048 56.5375 308.063 58.1669C308.093 59.7813 307.824 61.3658 307.271 62.9204C306.718 64.475 305.776 65.8203 304.476 66.9564C303.16 68.0924 301.292 68.6604 298.855 68.6604C297.107 68.6604 295.313 68.0775 293.459 66.8816C291.591 65.7007 290.41 63.9069 289.902 61.4704C289.603 60.0503 289.603 58.2864 289.947 56.1788C290.275 54.0711 291.501 51.5747 293.579 49.7212C293.758 49.5568 294.027 49.3026 294.192 48.9738C294.311 48.7346 294.446 48.4506 294.595 48.1516C294.745 47.8676 294.79 47.5537 294.715 47.2099C294.476 46.1187 293.534 45.5806 291.92 45.5806C289.962 45.5955 287.988 45.8945 286.015 46.4924C284.042 47.0903 282.323 48.032 280.873 49.3026C279.423 50.5882 278.332 52.2175 277.615 54.1907C276.897 56.1638 276.822 58.5854 277.39 61.4256C278.153 65.1925 280.425 68.1074 284.222 70.23C288.033 72.3526 293.116 73.2943 299.483 73.2943C305.148 73.2943 309.588 72.517 312.757 70.8429C315.926 69.1836 318.243 67.2105 319.678 64.8786C321.098 62.5467 321.905 60.1998 322.069 57.8081C322.219 55.4314 322.159 53.6077 321.86 52.352C321.023 48.8392 319.244 45.5806 316.569 42.6358C313.878 39.676 310.933 37.1199 307.749 35.0421C305.373 33.4875 303.654 31.9329 302.607 30.3036C301.561 28.6892 300.918 27.299 300.649 26.1181C300.29 24.5336 300.305 23.1733 300.664 22.0223C301.038 20.8863 301.606 19.9595 302.368 19.2569C303.131 18.5544 304.072 18.076 305.178 17.8219C306.299 17.5678 307.361 17.4931 308.392 17.5827C309.588 17.6874 310.604 17.8518 311.456 18.0461C312.293 18.2554 312.802 18.7337 312.981 19.4961C313.101 20.0043 313.086 20.5425 312.921 21.1404C312.757 21.7383 312.577 22.396 312.368 23.0986C312.159 23.8161 312.009 24.5934 311.905 25.4454C311.8 26.2975 311.86 27.1794 312.069 28.1062C312.413 29.616 313.056 30.7969 313.968 31.6489C314.879 32.5159 315.866 33.1736 316.912 33.6669C317.944 34.1452 318.915 34.4741 319.812 34.6684C320.694 34.8628 321.232 34.9674 321.397 34.9973C322.712 35.1617 323.459 34.8329 323.758 34.22C323.893 33.936 323.953 33.5025 323.848 33.0241C323.654 32.0824 323.758 30.8716 324.027 29.5412C324.297 28.2108 324.625 26.8954 324.999 25.5949L325.986 22.0223C326.285 20.9461 326.374 20.1688 326.27 19.6605L326.24 19.6456Z" fill="black"/>
<path d="M196.419 116.943C195.133 117.451 193.997 117.735 192.995 117.795C191.994 117.855 191.142 117.825 190.439 117.705C189.602 117.571 188.87 117.331 188.257 117.003C187.839 116.734 187.525 116.435 187.33 116.091C187.136 115.747 186.987 115.448 186.927 115.149C186.822 114.82 186.792 114.446 186.852 114.073C186.852 113.505 186.942 112.937 187.151 112.369C187.375 111.801 187.644 111.263 187.973 110.739C188.302 110.231 188.676 109.753 189.094 109.319C189.513 108.886 189.916 108.512 190.335 108.198C190.649 107.944 190.948 107.735 191.247 107.555C191.546 107.391 191.8 107.241 192.009 107.107C192.263 106.972 192.502 106.838 192.712 106.733C193.085 106.673 193.28 106.703 193.28 106.868C193.28 106.972 193.235 107.092 193.145 107.212C192.622 107.899 192.218 108.587 191.934 109.259C191.635 109.947 191.411 110.545 191.277 111.083C191.097 111.726 190.993 112.324 190.948 112.862C190.858 114.013 191.037 114.805 191.486 115.269C191.934 115.732 192.442 116.001 193.01 116.091C193.683 116.195 194.46 116.136 195.327 115.896C196.105 115.612 196.807 115.284 197.42 114.88C198.033 114.491 198.556 114.058 198.99 113.609C199.423 113.161 199.782 112.683 200.066 112.189C200.35 111.696 200.559 111.248 200.724 110.829C200.843 110.515 200.918 110.231 200.948 109.977C200.993 109.723 201.022 109.484 201.067 109.259C201.112 109.035 201.127 108.841 201.112 108.647C201.157 108.153 201.037 107.69 200.738 107.256C200.439 106.823 200.096 106.434 199.692 106.105C199.244 105.732 198.735 105.373 198.167 105.059C197.076 104.401 196.179 103.833 195.462 103.37C194.759 102.907 194.146 102.443 193.638 101.995C193.235 101.666 192.951 101.307 192.786 100.948C192.607 100.575 192.487 100.231 192.413 99.9169C192.338 99.5432 192.308 99.1695 192.338 98.7958C192.413 97.869 192.741 96.9572 193.339 96.0453C193.833 95.283 194.625 94.4758 195.701 93.5939C196.777 92.7269 198.332 91.9645 200.365 91.3217C201.381 91.0676 202.323 90.9181 203.19 90.8583C203.922 90.8135 204.625 90.8285 205.312 90.9181C206 91.0078 206.463 91.2769 206.703 91.7104C206.867 92.1439 206.897 92.6521 206.792 93.2351C206.688 93.7284 206.434 94.3263 206.03 95.0289C205.626 95.7314 204.954 96.5087 203.997 97.3608C203.922 97.4206 203.833 97.4804 203.728 97.5551C203.519 97.6896 203.339 97.6896 203.205 97.57C203.205 97.5103 203.205 97.4654 203.205 97.4056C203.205 97.301 203.235 97.1664 203.295 96.9871C203.489 96.2995 203.638 95.6567 203.713 95.0887C203.788 94.5954 203.818 94.117 203.818 93.6686C203.818 93.2052 203.668 92.8913 203.414 92.697C203.1 92.5475 202.712 92.4429 202.263 92.413C201.874 92.398 201.411 92.4727 200.858 92.6222C200.305 92.7717 199.662 93.0856 198.96 93.5341C198.347 94.0572 197.824 94.5954 197.39 95.1335C197.046 95.6118 196.777 96.135 196.598 96.718C196.419 97.301 196.493 97.884 196.837 98.4669C197.016 98.751 197.286 99.035 197.629 99.3489C197.943 99.6179 198.377 99.9319 198.915 100.291C199.453 100.664 200.155 101.068 201.052 101.516C201.815 101.89 202.487 102.324 203.07 102.787C203.579 103.191 204.057 103.714 204.505 104.342C204.939 104.969 205.163 105.687 205.163 106.494C205.193 107.869 204.909 109.185 204.311 110.47C204.042 111.038 203.713 111.621 203.309 112.189C202.906 112.772 202.383 113.34 201.77 113.908C201.142 114.476 200.395 115.014 199.528 115.523C198.661 116.031 197.659 116.509 196.508 116.943H196.419Z" fill="black"/>
<path d="M210.051 115.209C209.543 115.284 209.139 115.269 208.84 115.164C208.541 115.059 208.302 114.925 208.138 114.79C207.943 114.626 207.779 114.417 207.659 114.192C207.629 114.058 207.57 114.043 207.495 114.133C207.465 114.162 207.45 114.207 207.42 114.267C207.375 114.357 207.256 114.701 207.061 115.313C206.867 115.926 206.643 116.584 206.389 117.287C206.12 118.124 205.806 119.05 205.462 120.052C205.387 120.276 205.298 120.545 205.178 120.889C205.043 121.233 204.969 121.472 204.924 121.651C204.879 121.876 204.819 122.085 204.729 122.324C204.655 122.518 204.58 122.713 204.505 122.907C204.416 123.101 204.326 123.281 204.191 123.43C203.967 123.744 203.683 123.998 203.324 124.163C202.966 124.342 202.607 124.462 202.263 124.566C201.874 124.686 201.456 124.746 201.037 124.746C200.858 124.746 200.753 124.671 200.738 124.536C200.738 124.492 200.753 124.417 200.798 124.327C200.933 123.983 201.112 123.52 201.336 122.907C201.546 122.309 201.8 121.637 202.054 120.889C202.308 120.142 202.592 119.364 202.876 118.542C203.16 117.72 203.444 116.898 203.713 116.091C204.341 114.192 205.028 112.159 205.761 110.007C206.209 108.617 206.643 107.331 207.061 106.15C207.226 105.642 207.39 105.149 207.585 104.641C207.764 104.132 207.943 103.669 208.108 103.25C208.272 102.832 208.422 102.458 208.541 102.129C208.676 101.815 208.765 101.561 208.84 101.397C208.885 101.307 208.945 101.232 208.975 101.158C209.005 101.083 209.049 101.023 209.064 100.963C209.094 100.903 209.109 100.859 209.139 100.799C209.184 100.709 209.259 100.619 209.363 100.53C209.573 100.35 209.812 100.171 210.096 100.007C210.469 99.8422 210.798 99.7076 211.127 99.603C211.441 99.4984 211.8 99.4535 212.203 99.4386C212.248 99.4386 212.308 99.4386 212.368 99.4685C212.413 99.4984 212.443 99.5731 212.413 99.7076C212.323 99.9319 212.218 100.171 212.129 100.425C211.919 100.903 211.725 101.397 211.561 101.89C211.561 101.965 211.576 102.025 211.605 102.054C211.635 102.099 211.695 102.069 211.77 101.965C212.203 101.442 212.652 100.978 213.115 100.59C213.534 100.261 213.967 99.9468 214.46 99.6628C214.954 99.3788 215.447 99.2293 215.955 99.1994C216.628 99.1994 217.151 99.4535 217.54 99.9618C217.704 100.186 217.854 100.485 217.973 100.859C218.093 101.217 218.153 101.681 218.168 102.234C218.168 102.787 218.138 103.445 218.033 104.222C217.928 104.999 217.719 105.911 217.435 106.957C216.852 109.035 216.135 110.605 215.298 111.711C214.46 112.817 213.653 113.624 212.876 114.148C211.964 114.745 211.022 115.104 210.036 115.224L210.051 115.209ZM214.954 102.787C214.984 102.413 214.984 102.129 214.924 101.935C214.879 101.756 214.819 101.606 214.759 101.501C214.67 101.412 214.58 101.352 214.46 101.322C214.266 101.262 214.027 101.322 213.758 101.472C213.489 101.636 213.205 101.845 212.921 102.129C212.637 102.413 212.353 102.727 212.069 103.101C211.77 103.475 211.516 103.818 211.292 104.162C211.097 104.506 210.918 104.835 210.768 105.164C210.604 105.493 210.469 105.777 210.35 106.031C210.23 106.345 210.111 106.629 209.991 106.913C209.737 107.615 209.498 108.243 209.289 108.796C209.109 109.304 208.945 109.783 208.78 110.246C208.631 110.709 208.541 111.023 208.496 111.188C208.362 111.666 208.302 112.1 208.332 112.503C208.362 112.847 208.437 113.176 208.571 113.475C208.706 113.774 208.975 113.953 209.393 114.013C209.587 114.058 209.797 114.028 210.036 113.953C210.245 113.878 210.469 113.759 210.694 113.579C210.918 113.415 211.157 113.131 211.411 112.757C211.68 112.324 212.024 111.726 212.443 110.949C212.861 110.171 213.25 109.155 213.638 107.914C213.818 107.391 214.012 106.823 214.191 106.24C214.356 105.747 214.505 105.194 214.625 104.581C214.759 103.983 214.864 103.37 214.939 102.772L214.954 102.787Z" fill="black"/>
<path d="M231.606 99.6777C231.262 99.8272 230.978 99.9916 230.754 100.156C230.529 100.321 230.365 100.47 230.23 100.619C230.081 100.769 229.946 100.918 229.842 101.083C229.812 101.143 229.812 101.217 229.812 101.337C229.812 101.367 229.812 101.397 229.812 101.412C230.185 102.443 230.29 103.489 230.141 104.566C229.991 105.642 229.752 106.614 229.408 107.496C229.035 108.512 228.541 109.514 227.943 110.47C227.345 111.457 226.718 112.204 226.06 112.727C225.402 113.251 224.804 113.639 224.251 113.893C223.594 114.192 222.966 114.357 222.353 114.402C221.262 114.536 220.425 114.387 219.827 113.923C219.244 113.46 218.84 112.922 218.616 112.324C218.317 111.621 218.167 110.799 218.197 109.857C218.302 107.854 218.676 106.165 219.304 104.775C219.931 103.385 220.604 102.279 221.321 101.442C222.159 100.455 223.085 99.6628 224.117 99.035C224.909 98.6314 225.582 98.3773 226.165 98.3025C226.733 98.2278 227.226 98.2128 227.6 98.3025C228.063 98.3773 228.452 98.5417 228.751 98.7958C228.87 99.0051 228.855 99.1396 228.736 99.1994C228.661 99.2293 228.571 99.2442 228.496 99.2143C228.093 99.1844 227.659 99.2592 227.211 99.4236C226.837 99.588 226.404 99.8422 225.91 100.186C225.417 100.53 224.924 101.053 224.446 101.726C223.668 102.862 223.04 103.998 222.562 105.149C222.353 105.657 222.159 106.18 221.994 106.733C221.83 107.286 221.71 107.839 221.635 108.422C221.561 108.99 221.546 109.558 221.576 110.126C221.62 110.694 221.74 111.248 221.964 111.786C222.114 112.1 222.338 112.339 222.607 112.503C222.831 112.653 223.1 112.742 223.444 112.787C223.788 112.832 224.177 112.712 224.61 112.428C224.789 112.309 224.984 112.159 225.193 111.98C225.372 111.831 225.552 111.636 225.746 111.397C225.94 111.158 226.135 110.829 226.329 110.44C226.628 109.827 226.882 109.065 227.106 108.153C227.33 107.256 227.435 106.15 227.435 104.865C227.42 104.491 227.36 104.132 227.256 103.788C227.181 103.504 227.076 103.205 226.927 102.921C226.777 102.637 226.583 102.428 226.329 102.324C226.299 102.294 226.269 102.264 226.239 102.204C226.209 102.144 226.194 102.099 226.194 102.04C226.194 101.98 226.209 101.905 226.269 101.785C226.598 101.307 227.002 100.889 227.495 100.53C227.928 100.201 228.496 99.902 229.169 99.6329C229.842 99.3638 230.664 99.2143 231.635 99.1994C231.665 99.1994 231.71 99.1994 231.755 99.2293C231.86 99.2741 231.919 99.3339 231.919 99.4236C231.919 99.4535 231.919 99.4834 231.89 99.4984C231.815 99.588 231.71 99.6478 231.576 99.6777H231.606Z" fill="black"/>
<path d="M236.852 101.935C237.51 101.068 238.198 100.261 238.885 99.5133C239.483 98.9154 240.126 98.3623 240.843 97.8541C241.546 97.3458 242.233 97.0917 242.876 97.0768C243.011 97.0768 243.13 97.1216 243.25 97.2263C243.34 97.301 243.429 97.4206 243.504 97.585C243.594 97.7345 243.638 97.9737 243.653 98.3025C243.653 99.0798 243.534 99.7973 243.295 100.425C243.056 101.053 242.786 101.576 242.517 101.995C242.189 102.503 241.8 102.936 241.351 103.31C241.067 103.549 240.828 103.714 240.664 103.833C240.499 103.953 240.35 104.043 240.215 104.102C240.081 104.162 239.976 104.177 239.902 104.162C239.797 104.162 239.737 104.117 239.737 104.013C239.737 103.953 239.737 103.908 239.737 103.848C240.081 102.996 240.305 102.324 240.425 101.83C240.544 101.337 240.589 100.978 240.589 100.739C240.589 100.44 240.499 100.261 240.365 100.186C240.2 100.111 240.006 100.156 239.767 100.321C239.528 100.485 239.274 100.709 238.99 100.993C238.706 101.277 238.407 101.621 238.123 102.01C237.824 102.398 237.54 102.787 237.256 103.146C236.972 103.594 236.718 104.028 236.464 104.446C236.269 104.805 236.045 105.194 235.806 105.582C235.567 105.971 235.387 106.33 235.268 106.629C235.014 107.122 234.804 107.63 234.61 108.138C234.416 108.647 234.236 109.11 234.072 109.529C233.878 110.022 233.698 110.5 233.534 110.934C233.429 111.158 233.339 111.382 233.235 111.591C233.145 111.786 233.041 111.98 232.966 112.174C232.876 112.369 232.771 112.533 232.652 112.683C232.398 112.997 232.114 113.221 231.785 113.385C231.456 113.535 231.127 113.654 230.813 113.729C230.44 113.834 230.066 113.878 229.692 113.849C229.483 113.849 229.363 113.789 229.363 113.624C229.363 113.55 229.363 113.475 229.393 113.415C229.662 112.772 229.916 112.144 230.171 111.502C230.425 110.859 230.649 110.291 230.843 109.753C231.052 109.14 231.247 108.557 231.441 107.974C231.919 106.599 232.368 105.328 232.801 104.162C232.966 103.669 233.145 103.176 233.339 102.667C233.534 102.174 233.713 101.711 233.863 101.307C234.012 100.889 234.162 100.53 234.296 100.216C234.431 99.902 234.535 99.6628 234.61 99.4834C234.655 99.3937 234.7 99.319 234.745 99.2592C234.774 99.1845 234.819 99.1247 234.834 99.0649C234.864 99.0051 234.879 98.9602 234.909 98.9005C234.984 98.8108 235.058 98.736 235.148 98.6463C235.223 98.5865 235.328 98.5118 235.447 98.4072C235.567 98.3025 235.716 98.2278 235.896 98.153C236.269 97.9886 236.613 97.869 236.927 97.7943C237.241 97.7046 237.615 97.6747 238.018 97.6747C238.048 97.6747 238.093 97.6747 238.138 97.7046C238.227 97.7793 238.242 97.869 238.183 97.9886C238.138 98.1232 238.078 98.2726 238.003 98.4371C237.958 98.5716 237.899 98.736 237.809 98.9303C237.719 99.1247 237.629 99.3489 237.54 99.5881C237.495 99.7525 237.435 99.9468 237.36 100.156C237.286 100.35 237.196 100.59 237.106 100.859C237.017 101.128 236.897 101.472 236.748 101.845C236.748 101.89 236.748 101.935 236.748 101.965C236.748 102.04 236.807 102.025 236.912 101.905L236.852 101.935Z" fill="black"/>
<path d="M247.301 94.4608C247.375 94.4608 247.42 94.4459 247.42 94.416C247.42 94.416 247.42 94.3861 247.42 94.3711C247.689 93.6835 247.928 93.0856 248.138 92.5624C248.347 92.0392 248.496 91.6655 248.601 91.4563C248.706 91.232 248.78 91.0975 248.825 91.0377C248.87 90.9779 248.915 90.9331 248.945 90.8733C249.005 90.7836 249.079 90.7089 249.184 90.6192C249.393 90.4547 249.633 90.2903 249.902 90.1408C250.649 89.8419 251.396 89.6924 252.159 89.6924C252.204 89.6924 252.248 89.6924 252.278 89.7223C252.338 89.7821 252.353 89.8568 252.323 89.9614C252.278 90.096 252.204 90.2455 252.129 90.4099C252.084 90.5444 252.009 90.7238 251.92 90.948C251.83 91.1723 251.74 91.3965 251.636 91.6506C251.561 91.8449 251.471 92.0691 251.381 92.3531C251.277 92.5774 251.172 92.8315 251.053 93.1603C250.933 93.4743 250.798 93.8181 250.679 94.2067C250.649 94.2366 250.634 94.2815 250.649 94.3263C250.649 94.3263 250.649 94.3562 250.649 94.3711C250.649 94.401 250.664 94.401 250.694 94.3711C251.322 94.3412 251.875 94.3263 252.398 94.3114C252.906 94.2964 253.295 94.2516 253.564 94.1918C253.624 94.1918 253.653 94.1918 253.683 94.2217C253.743 94.2815 253.728 94.3711 253.653 94.5057C253.534 94.7299 253.369 94.8943 253.19 95.0139C253.011 95.1335 252.831 95.2082 252.667 95.268C252.488 95.3577 252.278 95.4026 252.069 95.4175C251.905 95.4773 251.665 95.5072 251.337 95.5221C251.008 95.5221 250.649 95.567 250.245 95.5969C250.186 95.6268 250.141 95.6567 250.081 95.6866C250.051 95.7165 250.051 95.7314 250.081 95.7314C249.588 97.0768 249.02 98.5566 248.392 100.186C247.749 101.815 247.151 103.385 246.598 104.88C246.523 105.014 246.434 105.209 246.344 105.463C246.239 105.687 246.15 105.956 246.03 106.3C245.925 106.644 245.791 107.047 245.612 107.511C245.372 108.228 245.163 108.916 244.984 109.603C244.804 110.291 244.685 110.829 244.58 111.233C244.476 111.726 244.371 112.204 244.281 112.698C244.221 113.131 244.177 113.609 244.132 114.133C244.102 114.656 244.132 115.164 244.192 115.642C244.221 115.672 244.236 115.702 244.236 115.762C244.236 115.837 244.236 115.926 244.236 116.001C244.192 116.091 244.102 116.106 243.952 116.061C243.893 116.031 243.848 116.016 243.788 115.986C242.981 115.164 242.473 114.252 242.248 113.251C242.039 112.249 241.949 111.307 241.994 110.425C242.054 109.364 242.263 108.318 242.592 107.241C242.652 106.942 242.757 106.599 242.876 106.24C242.996 105.866 243.115 105.537 243.235 105.238C243.354 104.88 243.504 104.506 243.668 104.132C244.012 103.176 244.281 102.428 244.505 101.875C244.73 101.322 244.894 100.903 245.029 100.605C245.148 100.276 245.238 100.036 245.283 99.9019C245.432 99.5432 245.597 99.1545 245.761 98.7061C245.911 98.3324 246.075 97.8989 246.239 97.4355C246.404 96.9721 246.583 96.4639 246.792 95.9257C246.792 95.9257 246.792 95.8958 246.792 95.8809C246.792 95.8809 246.763 95.851 246.748 95.8361C246.239 95.866 245.776 95.8958 245.372 95.9407C244.969 95.9855 244.655 96.0005 244.446 95.9855C244.147 95.9855 243.997 95.9407 243.997 95.8062C243.967 95.7613 243.982 95.7015 244.027 95.6417C244.102 95.4474 244.192 95.283 244.311 95.1634C244.431 95.0289 244.535 94.9392 244.64 94.8794C244.745 94.7897 244.879 94.7299 245.044 94.7C245.178 94.7 245.343 94.6701 245.567 94.6402C245.746 94.6103 245.985 94.5804 246.269 94.5655C246.553 94.5655 246.882 94.5206 247.256 94.4758L247.301 94.4608Z" fill="black"/>
<path d="M257.973 105.866C257.645 106.733 257.196 107.526 256.628 108.228C256.045 108.931 255.462 109.544 254.864 110.082C254.192 110.695 253.459 111.248 252.667 111.741C251.83 112.249 251.068 112.668 250.365 112.952C249.662 113.251 249.05 113.475 248.526 113.639C247.914 113.834 247.36 113.938 246.852 113.998C246.538 114.073 246.299 114.103 246.135 114.088C245.97 114.088 245.866 114.058 245.806 113.998C245.716 113.953 245.686 113.878 245.671 113.804C245.671 113.729 245.686 113.654 245.746 113.594C245.776 113.565 245.806 113.535 245.866 113.505C246.897 113.101 247.809 112.653 248.631 112.144C249.438 111.636 250.141 111.143 250.709 110.665C251.381 110.126 251.964 109.573 252.458 108.99C252.966 108.467 253.355 107.989 253.609 107.555C253.863 107.137 254.057 106.763 254.177 106.464C254.296 106.105 254.356 105.792 254.341 105.537C254.341 105.298 254.251 105.059 254.117 104.865C253.967 104.655 253.803 104.476 253.609 104.312C253.384 104.132 253.13 103.953 252.861 103.774C252.233 103.4 251.71 103.071 251.292 102.787C251.068 102.637 250.888 102.488 250.739 102.368C250.275 102.01 250.006 101.636 249.961 101.232C249.902 100.829 249.917 100.455 250.021 100.096C250.111 99.7077 250.32 99.334 250.634 98.9453C250.963 98.4969 251.381 98.1082 251.89 97.7495C252.383 97.3907 252.906 97.0768 253.429 96.8077C253.952 96.5387 254.476 96.2995 254.984 96.1351C255.492 95.9557 255.926 95.8361 256.299 95.7763C256.867 95.6717 257.331 95.6268 257.719 95.6119C257.914 95.6119 258.093 95.6119 258.287 95.5969C258.362 95.6268 258.437 95.6418 258.482 95.6717C258.601 95.7315 258.661 95.7763 258.691 95.8361C258.751 95.9706 258.766 96.0454 258.736 96.0603C258.706 96.0753 258.631 96.1201 258.497 96.2098C258.272 96.2397 258.033 96.3144 257.764 96.434C257.525 96.5237 257.241 96.6284 256.927 96.7629C256.613 96.8974 256.269 97.0618 255.896 97.2562C255.402 97.5701 254.954 97.884 254.595 98.183C254.281 98.467 253.997 98.7809 253.743 99.1396C253.489 99.4984 253.384 99.8571 253.459 100.201C253.429 100.261 253.429 100.306 253.459 100.35C253.489 100.41 253.519 100.47 253.564 100.53C253.609 100.605 253.668 100.664 253.758 100.739C253.893 100.904 254.162 101.083 254.55 101.322C254.939 101.546 255.477 101.845 256.195 102.189C256.688 102.443 257.091 102.757 257.39 103.116C257.674 103.43 257.884 103.818 258.048 104.267C258.213 104.715 258.183 105.268 257.958 105.881L257.973 105.866Z" fill="black"/>
<path d="M280.814 114.417C280.843 114.626 280.843 114.775 280.814 114.835C280.769 114.91 280.724 114.94 280.634 114.94C280.53 114.94 280.425 114.895 280.305 114.82C279.438 114.417 278.855 113.849 278.541 113.101C278.228 112.354 278.048 111.636 278.018 110.949C277.973 110.112 278.078 109.23 278.317 108.288C278.332 108.079 278.302 107.989 278.198 108.049C278.138 108.079 278.078 108.123 278.003 108.213C276.942 109.663 275.926 110.709 274.954 111.322C273.997 111.95 273.13 112.354 272.353 112.548C271.471 112.772 270.649 112.772 269.872 112.578C269.229 112.443 268.691 112.174 268.287 111.771C267.869 111.367 267.57 110.859 267.361 110.276C267.166 109.693 267.047 109.05 267.002 108.363C266.972 107.675 266.987 106.987 267.047 106.285C267.136 105.582 267.286 104.835 267.495 104.058C267.704 103.265 267.914 102.548 268.138 101.875C268.407 101.113 268.691 100.365 268.96 99.603C269.618 97.9736 270.41 96.419 271.337 94.9392C272.144 93.6686 273.145 92.398 274.356 91.1274C275.567 89.8568 277.002 88.8403 278.676 88.0929C279.453 87.7491 280.26 87.4651 281.098 87.2558C281.8 87.0765 282.577 86.9419 283.429 86.8821C284.281 86.8223 285.133 86.912 285.971 87.1662C286.299 87.2558 286.568 87.4053 286.793 87.6146C286.987 87.8089 287.136 88.063 287.241 88.4068C287.346 88.7357 287.286 89.1842 287.077 89.7522C286.823 90.5295 286.449 91.1872 285.956 91.7253C285.462 92.2635 284.969 92.697 284.461 93.0408C283.878 93.4444 283.25 93.7583 282.577 93.9974C282.443 94.0572 282.338 94.0722 282.263 94.0572C282.189 94.0572 282.114 94.0423 282.054 94.0423C281.994 94.0423 281.965 94.0273 281.935 93.9974C281.86 93.9077 281.845 93.8031 281.935 93.6686C281.965 93.6088 281.994 93.5789 282.054 93.549C282.577 92.8464 282.981 92.2485 283.25 91.7253C283.519 91.2021 283.728 90.7687 283.848 90.4099C283.968 90.0063 284.042 89.6774 284.072 89.4084C284.117 89.0795 284.072 88.8553 283.953 88.7058C283.833 88.5563 283.669 88.4517 283.474 88.4068C283.25 88.3471 283.011 88.3321 282.742 88.362C282.069 88.4367 281.411 88.6759 280.784 89.0646C280.156 89.4532 279.543 89.9316 278.975 90.4996C278.392 91.0676 277.839 91.6954 277.331 92.4129C276.823 93.1304 276.359 93.848 275.941 94.5804C274.924 96.2845 274.027 98.1979 273.205 100.32C272.518 101.965 272.039 103.46 271.74 104.805C271.621 105.373 271.531 105.941 271.456 106.509C271.396 107.077 271.382 107.6 271.441 108.064C271.486 108.527 271.621 108.931 271.83 109.259C272.039 109.588 272.338 109.813 272.757 109.917C273.1 109.947 273.474 109.902 273.878 109.783C274.222 109.678 274.625 109.484 275.074 109.215C275.522 108.946 275.985 108.497 276.494 107.884C277.017 107.346 277.57 106.673 278.183 105.866C278.676 105.164 279.229 104.282 279.842 103.22C280.455 102.159 281.053 100.903 281.636 99.4535C281.681 99.2891 281.651 99.1545 281.546 99.0499C281.486 98.9901 281.441 98.9752 281.382 98.9602C280.739 98.9602 280.171 98.9602 279.678 98.9602C279.184 98.9752 278.796 98.9752 278.512 98.9752C278.138 99.0051 277.824 99.02 277.585 99.02C277.376 99.02 277.241 98.9901 277.211 98.9154C277.181 98.8556 277.196 98.7659 277.241 98.6463C277.286 98.5417 277.376 98.4221 277.51 98.2875C277.615 98.0932 277.749 97.9288 277.944 97.7644C278.078 97.6298 278.257 97.5103 278.497 97.4056C278.736 97.301 279.035 97.2262 279.379 97.2113C280.006 97.2113 280.619 97.2113 281.247 97.2113C281.725 97.2113 282.219 97.2113 282.727 97.2113C283.235 97.2113 283.609 97.2113 283.878 97.1814C284.416 97.1365 284.879 97.1216 285.268 97.1365C285.657 97.1515 285.941 97.1515 286.09 97.1365C286.12 97.1365 286.165 97.1515 286.21 97.1814C286.299 97.2561 286.314 97.3757 286.255 97.5103C285.567 99.1994 284.894 100.784 284.281 102.249C284.027 102.862 283.773 103.489 283.504 104.117C283.25 104.745 283.011 105.343 282.772 105.896C282.533 106.464 282.353 106.972 282.204 107.436C282.054 107.899 281.935 108.243 281.86 108.482C281.606 109.23 281.382 109.977 281.172 110.694C280.993 111.307 280.858 111.965 280.754 112.653C280.649 113.34 280.649 113.938 280.769 114.446L280.814 114.417Z" fill="black"/>
<path d="M291.187 100.844C291.875 100.022 292.577 99.2741 293.295 98.5865C293.908 98.0334 294.565 97.5252 295.298 97.0768C296.015 96.6283 296.703 96.419 297.361 96.4639C297.495 96.4639 297.615 96.5237 297.719 96.6283C297.809 96.7031 297.884 96.8376 297.974 97.002C298.048 97.1665 298.093 97.4056 298.093 97.7345C298.078 98.5118 297.944 99.2143 297.675 99.8272C297.406 100.44 297.136 100.948 296.852 101.337C296.509 101.815 296.105 102.219 295.657 102.563C295.358 102.772 295.133 102.921 294.954 103.026C294.775 103.131 294.625 103.205 294.491 103.265C294.356 103.31 294.252 103.325 294.162 103.295C294.057 103.295 293.997 103.235 293.997 103.131C293.997 103.071 293.997 103.026 293.997 102.966C294.356 102.144 294.61 101.486 294.73 101.008C294.864 100.53 294.924 100.156 294.909 99.9169C294.909 99.618 294.835 99.4386 294.7 99.3489C294.536 99.2592 294.341 99.2891 294.102 99.4386C293.863 99.588 293.594 99.7824 293.31 100.051C293.011 100.321 292.727 100.634 292.413 101.008C292.114 101.382 291.815 101.726 291.516 102.084C291.232 102.503 290.948 102.921 290.694 103.325C290.485 103.669 290.261 104.028 290.006 104.401C289.752 104.775 289.573 105.104 289.438 105.403C289.169 105.881 288.945 106.374 288.736 106.868C288.527 107.361 288.332 107.81 288.153 108.213C287.944 108.691 287.749 109.155 287.57 109.573C287.465 109.783 287.361 110.007 287.256 110.216C287.151 110.41 287.062 110.59 286.957 110.769C286.867 110.964 286.763 111.113 286.628 111.248C286.359 111.547 286.075 111.756 285.731 111.89C285.402 112.025 285.074 112.115 284.76 112.159C284.386 112.234 284.012 112.249 283.639 112.189C283.429 112.189 283.31 112.1 283.31 111.935C283.31 111.86 283.31 111.786 283.34 111.741C283.624 111.128 283.893 110.515 284.162 109.887C284.431 109.274 284.67 108.706 284.879 108.198C285.104 107.615 285.328 107.032 285.522 106.464C286.03 105.119 286.524 103.893 286.987 102.772C287.166 102.294 287.361 101.815 287.57 101.322C287.779 100.844 287.959 100.395 288.138 99.9916C288.302 99.588 288.467 99.2293 288.601 98.9303C288.736 98.6314 288.855 98.3922 288.93 98.2278C288.99 98.153 289.035 98.0783 289.065 98.0185C289.11 97.9438 289.139 97.884 289.169 97.8391C289.199 97.7793 289.229 97.7345 289.244 97.6747C289.319 97.6 289.394 97.5103 289.483 97.4355C289.558 97.3907 289.663 97.3159 289.782 97.2113C289.902 97.1216 290.051 97.0469 290.246 97.002C290.619 96.8824 290.963 96.7778 291.292 96.718C291.621 96.6582 291.979 96.6433 292.383 96.6732C292.413 96.6732 292.458 96.6732 292.503 96.718C292.577 96.7927 292.592 96.8974 292.548 97.002C292.488 97.1366 292.428 97.286 292.353 97.4355C292.293 97.5701 292.234 97.7345 292.144 97.9139C292.054 98.0932 291.95 98.3175 291.845 98.5566C291.785 98.7211 291.725 98.9004 291.651 99.1097C291.576 99.2891 291.486 99.5283 291.382 99.7973C291.277 100.066 291.142 100.38 290.993 100.754C290.993 100.799 290.993 100.829 290.993 100.874C290.993 100.948 291.053 100.948 291.157 100.829L291.187 100.844Z" fill="black"/>
<path d="M298.093 112.832C298.018 112.937 297.914 112.967 297.809 112.907C297.749 112.877 297.704 112.847 297.645 112.817C296.942 112.369 296.509 111.786 296.359 111.083C296.195 110.381 296.165 109.678 296.27 108.975C296.359 108.168 296.598 107.346 296.957 106.494C297.48 105.164 297.974 103.938 298.437 102.817C298.616 102.338 298.811 101.86 299.02 101.382C299.229 100.903 299.423 100.455 299.603 100.051C299.782 99.6478 299.947 99.2741 300.096 98.9752C300.246 98.6762 300.35 98.437 300.44 98.2726C300.485 98.1979 300.545 98.1231 300.574 98.0783C300.619 98.0334 300.649 97.9737 300.679 97.9139C300.709 97.8541 300.739 97.8092 300.754 97.7494C300.829 97.6747 300.918 97.585 300.993 97.5103C301.068 97.4654 301.172 97.3907 301.322 97.301C301.456 97.2113 301.606 97.1366 301.77 97.0917C302.144 96.9422 302.503 96.8525 302.861 96.8077C303.205 96.7629 303.579 96.7629 303.997 96.8077C304.027 96.7778 304.057 96.7778 304.117 96.8077C304.192 96.8824 304.207 96.9721 304.162 97.0469C304.102 97.2113 304.042 97.3608 303.968 97.5252C303.923 97.6597 303.848 97.8242 303.773 98.0185C303.699 98.2128 303.609 98.437 303.504 98.6762C303.19 99.4386 302.832 100.306 302.443 101.262C302.099 102.084 301.681 103.071 301.202 104.207C300.724 105.343 300.186 106.614 299.618 107.989C299.364 108.602 299.125 109.185 298.915 109.738C298.736 110.216 298.571 110.709 298.407 111.218C298.258 111.726 298.183 112.159 298.183 112.503C298.153 112.548 298.153 112.593 298.138 112.623C298.138 112.683 298.138 112.712 298.123 112.727C298.123 112.727 298.108 112.757 298.108 112.787L298.093 112.832ZM303.848 94.7748C303.34 94.7598 302.951 94.5356 302.712 94.132C302.458 93.7134 302.413 93.2351 302.577 92.682C302.712 92.1289 302.996 91.6506 303.429 91.262C303.878 90.8733 304.341 90.6939 304.82 90.7089C305.328 90.7238 305.716 90.948 305.956 91.3516C306.21 91.7702 306.255 92.2485 306.135 92.8166C305.971 93.3696 305.672 93.848 305.238 94.2366C304.79 94.6253 304.326 94.8047 303.848 94.7897V94.7748Z" fill="black"/>
<path d="M305.836 108.647C305.567 109.334 305.343 110.022 305.148 110.68C304.954 111.352 304.79 111.875 304.655 112.279C304.521 112.757 304.416 113.236 304.311 113.729C304.237 114.147 304.177 114.626 304.147 115.134C304.117 115.642 304.117 116.136 304.177 116.629C304.207 116.689 304.222 116.734 304.222 116.793C304.222 116.928 304.222 117.003 304.177 117.032C304.102 117.107 304.012 117.122 303.893 117.062C303.833 117.032 303.788 117.003 303.728 116.973C302.951 116.091 302.458 115.134 302.278 114.103C302.099 113.071 302.039 112.115 302.114 111.233C302.219 110.186 302.443 109.14 302.802 108.108C302.876 107.809 302.981 107.496 303.116 107.167C303.235 106.838 303.37 106.524 303.504 106.225C303.639 105.881 303.773 105.522 303.938 105.149C304.296 104.222 304.67 103.295 305.044 102.383C305.418 101.471 305.761 100.649 306.075 99.9019C306.449 99.02 306.808 98.1979 307.181 97.4056C307.734 96.0752 308.258 94.8644 308.721 93.7583C308.93 93.2799 309.154 92.8016 309.364 92.3382C309.573 91.8598 309.767 91.4264 309.947 91.0078C310.126 90.6042 310.29 90.2455 310.44 89.9465C310.604 89.6475 310.724 89.4084 310.799 89.2589C310.859 89.1841 310.903 89.1094 310.933 89.0496C310.963 88.9898 311.008 88.93 311.038 88.8702C311.068 88.8104 311.098 88.7656 311.113 88.7058C311.172 88.6311 311.247 88.5563 311.352 88.4816C311.561 88.3321 311.815 88.1976 312.084 88.078C312.488 87.9584 312.861 87.8837 313.22 87.8239C313.564 87.779 313.953 87.7641 314.356 87.8239C314.386 87.8239 314.416 87.8388 314.476 87.8687C314.566 87.9584 314.58 88.0481 314.521 88.1527C314.461 88.2873 314.401 88.4218 314.311 88.5862C314.252 88.7208 314.192 88.8852 314.087 89.0795C313.998 89.2738 313.893 89.498 313.788 89.7372C313.205 91.1872 312.592 92.6372 311.95 94.0871C311.427 95.3577 310.829 96.7329 310.171 98.2277C309.513 99.7226 308.9 101.143 308.317 102.488C307.944 103.31 307.6 104.102 307.286 104.865C307.002 105.522 306.718 106.21 306.434 106.928C306.165 107.645 305.941 108.228 305.791 108.676L305.836 108.647Z" fill="black"/>
<path d="M312.413 107.525C312.159 108.213 311.92 108.886 311.725 109.543C311.531 110.201 311.367 110.739 311.232 111.128C311.098 111.606 310.978 112.085 310.873 112.563C310.799 112.997 310.739 113.46 310.709 113.968C310.664 114.476 310.679 114.97 310.739 115.463C310.769 115.523 310.784 115.568 310.784 115.627C310.784 115.762 310.769 115.837 310.739 115.867C310.664 115.941 310.56 115.956 310.455 115.896C310.395 115.867 310.35 115.837 310.29 115.807C309.513 114.91 309.035 113.953 308.856 112.922C308.676 111.89 308.616 110.934 308.691 110.052C308.796 109.005 309.035 107.959 309.394 106.928C309.468 106.629 309.573 106.315 309.708 105.986C309.842 105.657 309.962 105.343 310.096 105.059C310.231 104.715 310.38 104.356 310.53 103.983C310.903 103.056 311.262 102.144 311.636 101.232C312.009 100.321 312.353 99.4984 312.667 98.751C313.041 97.884 313.415 97.0469 313.788 96.2696C314.356 94.9541 314.864 93.7433 315.358 92.6372C315.567 92.1588 315.791 91.6954 316.001 91.2171C316.21 90.7388 316.404 90.3053 316.583 89.9017C316.763 89.4981 316.927 89.1393 317.092 88.8404C317.256 88.5414 317.376 88.3172 317.45 88.1527C317.51 88.078 317.555 88.0033 317.585 87.9435C317.63 87.8837 317.66 87.8239 317.69 87.7641C317.72 87.7193 317.749 87.6595 317.764 87.6146C317.809 87.5399 317.899 87.4651 318.004 87.3904C318.213 87.2409 318.467 87.1064 318.736 86.9868C319.14 86.8822 319.513 86.7925 319.872 86.7476C320.216 86.7028 320.604 86.7028 321.008 86.7476C321.038 86.7476 321.068 86.7626 321.128 86.7925C321.202 86.8822 321.217 86.9718 321.172 87.0765C321.113 87.211 321.053 87.3456 320.963 87.51C320.903 87.6445 320.829 87.8089 320.739 88.0033C320.649 88.1976 320.545 88.4069 320.44 88.646C319.842 90.096 319.229 91.531 318.586 92.981C318.048 94.2366 317.45 95.6119 316.793 97.1067C316.135 98.5865 315.522 100.007 314.924 101.352C314.551 102.174 314.207 102.951 313.893 103.729C313.594 104.386 313.31 105.074 313.041 105.792C312.757 106.509 312.548 107.092 312.383 107.54L312.413 107.525Z" fill="black"/>
</svg>
