<?xml version="1.0" encoding="UTF-8"?>
<svg id="Layer_2" data-name="Layer 2" xmlns="http://www.w3.org/2000/svg" viewBox="0 0 195.78 240.48">
  <g id="Layer_1-2" data-name="Layer 1">
    <g>
      <g>
        <g>
          <path d="M4.28,132.94v1.66c-1.73.19-2.82,1.8-2.82,4.12,0,2.02.84,3.08,2.25,3.08s1.88-1.17,2.28-2.44l.73-2.29c.35-1.06.92-3.72,3.55-3.72,2.17,0,3.59,1.76,3.59,4.5,0,3.02-1.56,4.89-4.42,5.1v-1.64c1.9-.13,2.96-1.44,2.96-3.53,0-1.66-.77-2.83-2.05-2.83-1.48,0-1.79,1.51-2.15,2.65l-.67,2.14c-.54,1.68-1.21,3.7-3.74,3.7-2.36,0-3.78-1.78-3.78-4.71,0-3.33,1.75-5.61,4.28-5.78Z"/>
          <path d="M.99,157.87l14.28,2.52.33,1.57-12.01,8.15-.34-1.61,3.43-2.32-1.28-5.99-4.08-.71-.34-1.61ZM6.96,160.48l1.02,4.81,5.44-3.67-6.47-1.13Z"/>
          <path d="M9.24,184.76l11.9-6.25.74,1.41-10.59,5.56,3.29,6.27-1.31.69-4.03-7.68Z"/>
          <path d="M25.35,201.88l6.56-6.06,1.08,1.17-6.53,6.03c-1.57,1.45-1.27,3.44.1,4.92,1.37,1.49,3.33,1.94,4.9.49l6.53-6.03,1.08,1.17-6.56,6.06c-1.88,1.73-4.75,1.84-7.05-.67-2.32-2.51-1.98-5.35-.1-7.08Z"/>
          <path d="M42.11,223.27l7-11.47,3.98,2.43c3.24,1.98,4.08,5.68,2.04,9.03-2.09,3.43-5.8,4.42-9.04,2.45l-3.98-2.43ZM44.23,222.84l2.71,1.65c2.34,1.43,5.13.56,6.76-2.11,1.51-2.47,1.05-5.41-1.29-6.84l-2.71-1.65-5.46,8.95Z"/>
          <path d="M74.5,237.59l3.08-13.09,1.55.36-3.08,13.09-1.55-.36Z"/>
          <path d="M92.24,240.31l.21-13.44,1.81.03,7.31,11.26.18-11.14,1.59.03-.21,13.44-1.81-.03-7.31-11.26-.18,11.14-1.59-.03Z"/>
          <path d="M123.3,237.13l-3.14-11.54-4.41,1.2-.39-1.43,10.36-2.82.39,1.43-4.41,1.2,3.14,11.54-1.53.42Z"/>
          <path d="M143.7,229.33l-6.73-11.64,7.82-4.52.74,1.28-6.46,3.74,2.12,3.67,5.81-3.36.72,1.25-5.81,3.36,2.4,4.16,6.61-3.82.74,1.28-7.97,4.61Z"/>
          <path d="M159.2,210.65c-2.86-2.79-3.26-6.53-.45-9.41,2.35-2.41,5.46-2.62,8.2-.71l-1.15,1.18c-2.1-1.36-4.31-1.17-6,.56-2.05,2.1-1.86,4.84.55,7.19,2.43,2.37,5.24,2.5,7.14.55,1.73-1.77,1.6-4.09-.14-5.79l-3.11,3.19-.99-.97,3.25-3.33c.96-.99,1.99-1.02,2.92-.11l3.42,3.34-.99,1.01-3.28-3.2-.03.03c1.94,2.24,2.06,4.76.02,6.86-2.55,2.61-6.32,2.57-9.36-.39Z"/>
          <path d="M182.44,192.92l-11.88-6.3,2.82-5.33c1.17-2.2,3.31-3.01,5.25-1.99,1.41.75,2.1,2.31,1.81,3.97.5-.53,1.13-.75,1.84-.65l5.24.7-.8,1.5-4.92-.68c-.61-.09-1.09.17-1.38.72l-2.14,4.04,4.9,2.6-.74,1.4ZM177,188.24l2.12-3.99c.77-1.45.17-2.78-1.1-3.45-1.39-.74-2.62-.15-3.29,1.12l-2.12,3.99,4.39,2.33Z"/>
          <path d="M192.58,169.42l-12.07-8.04.32-1.57,14.27-2.64-.33,1.61-4.07.74-1.23,6,3.45,2.29-.33,1.61ZM188.16,164.63l.99-4.81-6.46,1.18,5.47,3.63Z"/>
          <path d="M195.78,141.95h-13.44v-1.59h11.96v-7.09h1.48v8.67Z"/>
        </g>
        <g>
          <path d="M9.58,107.66v-1.66c1.73-.19,2.82-1.8,2.82-4.12,0-2.02-.84-3.08-2.25-3.08s-1.88,1.17-2.28,2.44l-.73,2.29c-.35,1.06-.92,3.72-3.55,3.72C1.42,107.25,0,105.49,0,102.75c0-3.02,1.56-4.89,4.42-5.1v1.64c-1.9.13-2.96,1.44-2.96,3.53,0,1.66.77,2.83,2.05,2.83,1.48,0,1.79-1.51,2.15-2.65l.67-2.14c.54-1.68,1.21-3.7,3.74-3.7,2.36,0,3.78,1.78,3.78,4.71,0,3.33-1.75,5.61-4.28,5.78Z"/>
          <path d="M14.3,85.6l-11.93-8.24.35-1.57,14.31-2.4-.36,1.6-4.09.68-1.33,5.98,3.41,2.35-.36,1.6ZM9.96,80.74l1.07-4.79-6.48,1.07,5.41,3.72Z"/>
          <path d="M21.49,62.15l-11.89-6.27.74-1.4,10.58,5.58,3.3-6.27,1.31.69-4.04,7.67Z"/>
          <path d="M28.94,41.76l-6.58-6.03,1.07-1.17,6.55,6.01c1.57,1.44,3.53.98,4.9-.51,1.37-1.49,1.66-3.48.08-4.92l-6.55-6.01,1.07-1.17,6.58,6.03c1.88,1.73,2.23,4.58-.08,7.08-2.31,2.52-5.16,2.42-7.05.69Z"/>
          <path d="M49.41,28.76l-7.05-11.44,3.97-2.45c3.23-1.99,6.92-1.06,8.97,2.27,2.11,3.42,1.32,7.17-1.92,9.17l-3.97,2.45ZM49.98,26.67l2.7-1.67c2.33-1.44,2.82-4.31,1.18-6.98-1.52-2.47-4.35-3.39-6.68-1.95l-2.7,1.67,5.5,8.92Z"/>
          <path d="M77.81,15.96l-3.09-13.08,1.54-.36,3.09,13.08-1.54.36Z"/>
          <path d="M92.46,13.44l.22-13.44,1.81.03,7.3,11.26.18-11.14,1.59.03-.22,13.44-1.81-.03-7.3-11.26-.18,11.14-1.59-.03Z"/>
          <path d="M119.92,16.42l3.22-11.52-4.4-1.23.4-1.42,10.33,2.89-.4,1.42-4.4-1.23-3.22,11.52-1.53-.43Z"/>
          <path d="M137.07,23.02l6.84-11.57,7.78,4.59-.75,1.27-6.43-3.8-2.16,3.65,5.78,3.41-.73,1.24-5.78-3.41-2.44,4.13,6.57,3.88-.75,1.27-7.92-4.68Z"/>
          <path d="M159.27,30.22c2.88-2.76,6.64-3.04,9.42-.13,2.33,2.43,2.44,5.54.44,8.22l-1.14-1.19c1.43-2.06,1.31-4.27-.37-6.01-2.03-2.11-4.78-2.02-7.2.31-2.45,2.35-2.67,5.15-.78,7.11,1.71,1.79,4.03,1.74,5.79.05l-3.09-3.22,1-.96,3.22,3.36c.95,1,.95,2.02.01,2.92l-3.45,3.31-.98-1.02,3.31-3.18-.03-.03c-2.3,1.87-4.82,1.9-6.85-.21-2.52-2.63-2.36-6.4.7-9.34Z"/>
          <path d="M170.41,54.41l11.9-6.25,2.8,5.34c1.16,2.21.62,4.44-1.32,5.45-1.41.74-3.09.43-4.3-.75.16.71-.02,1.36-.5,1.89l-3.53,3.93-.79-1.51,3.34-3.68c.41-.45.47-1,.18-1.55l-2.13-4.05-4.91,2.58-.74-1.4ZM177.34,52.56l2.1,4c.76,1.46,2.2,1.71,3.47,1.04,1.39-.73,1.6-2.08.93-3.35l-2.1-4-4.4,2.31Z"/>
          <path d="M179.25,74.4l14.27,2.56.33,1.57-12.03,8.11-.34-1.61,3.44-2.31-1.26-5.99-4.08-.73-.34-1.61ZM185.22,77.02l1.01,4.81,5.45-3.66-6.46-1.15Z"/>
          <path d="M182.33,99.1h13.44v1.59h-11.96v7.09h-1.48v-8.67Z"/>
        </g>
      </g>
      <g>
        <path d="M98.13,216.36c-17.62,0-34.68-6.37-48.01-17.92-1.77-1.53-3.48-3.17-5.1-4.86-.81-.85-1.61-1.72-2.37-2.61-.38-.44-.76-.89-1.14-1.35-10.82-13.11-16.78-29.68-16.78-46.67v-46.15c.09-7.36,1.27-14.62,3.51-21.57.18-.57.37-1.13.57-1.69.39-1.11.81-2.23,1.26-3.33.44-1.09.92-2.18,1.41-3.25,5.81-12.54,15.02-23.18,26.62-30.76,11.92-7.78,25.75-11.89,40.01-11.89,12.82,0,25.44,3.37,36.51,9.74,3.56,2.05,6.98,4.42,10.16,7.04h0c16.99,14.03,26.74,34.67,26.74,56.62v46.15c-.3,24.15-12.5,46.63-32.64,60.12-.97.65-1.97,1.28-2.96,1.89-1,.61-2.03,1.19-3.06,1.74-.52.28-1.04.55-1.56.82-10.34,5.26-21.5,7.93-33.16,7.93ZM98.11,25.42c-14.04,0-27.66,4.05-39.39,11.71-11.43,7.46-20.49,17.94-26.22,30.29-.49,1.05-.95,2.13-1.39,3.2-.44,1.08-.86,2.19-1.24,3.28-.19.55-.38,1.11-.56,1.67-2.21,6.84-3.37,13.99-3.46,21.23v46.15c0,16.72,5.87,33.04,16.53,45.95.37.45.74.89,1.12,1.33.75.87,1.54,1.73,2.34,2.57,1.59,1.67,3.28,3.28,5.02,4.79,13.13,11.38,29.92,17.65,47.27,17.65,11.48,0,22.47-2.63,32.65-7.8.52-.26,1.03-.53,1.54-.81,1.01-.54,2.02-1.12,3.01-1.72.98-.59,1.96-1.22,2.92-1.86,19.83-13.29,31.85-35.42,32.14-59.19v-46.15c0-21.62-9.6-41.94-26.33-55.75h0c-3.13-2.58-6.49-4.92-10-6.94-10.9-6.27-23.33-9.59-35.95-9.59Z"/>
        <path d="M98.11,36.25c-33.69,0-61.14,27.21-61.55,60.81v45.77c0,33.95,27.62,61.57,61.57,61.57s61.14-27.21,61.55-60.81v-45.77c0-33.95-27.62-61.57-61.57-61.57ZM158.06,142.44h-20.44v-64.28l-12.7,2.28s3.51,2.37,3.51,10.82v70.7h9.18v-17.89h12c-.58,32.49-18.85,58.71-51.49,58.71s-59.95-26.89-59.95-59.95v-44.62h20.48c.05,1.14.19,2.31.47,3.52,2.46,10.74,18.53,17.19,29.77,22.32,10.38,4.74,21.45,7.76,24.19,15.55,3.49,9.95-3.82,22.1-25.48,22.1-8.29,0-16.05-2.04-19.4-5.02-6.39-5.69-5.29-15.69-3.82-18.06-10.88-4.74-12.28,10.27-1.15,17.93,4.83,3.32,11.94,6.81,24.57,6.81,23.19,0,39.79-7.61,35.95-25-2.64-11.95-17.63-16.99-27.11-21.31-10.22-4.65-24.11-9.27-26.86-16.75-4.13-11.25,7.02-21.36,22.55-21.36,8.81,0,13.48,2.84,15.86,5.02,6.15,5.62,5.02,15.69,3.55,18.06,9.69,4.22,13.2-9.64,1.15-17.93-4.83-3.32-12.28-6.81-20.77-6.81-19.52,0-32.83,7.49-33.48,19.29h-12.04c.58-32.49,18.85-58.71,51.49-58.71s59.95,26.89,59.95,59.95v44.62Z"/>
      </g>
      <circle cx="6.98" cy="120.32" r="1.18"/>
      <circle cx="189.26" cy="120.32" r="1.18"/>
    </g>
  </g>
</svg>