<svg width="374" height="531" viewBox="0 0 374 531" fill="none" xmlns="http://www.w3.org/2000/svg">
<g opacity="0.5">
<path d="M186.66 4.5H110.27L16.18 75.32V191.17L1 239.73L17.19 288.29L17.7 332.81L42.48 413.24L82.95 471.93L145.68 522.51H186.66" stroke="white" stroke-width="2" stroke-linecap="round" stroke-linejoin="round"/>
<path d="M52.1002 225.06L32.3701 240.74L112.1 495.43" stroke="white" stroke-width="2" stroke-linecap="round" stroke-linejoin="round"/>
<path d="M104.71 283.24L160.86 239.73L130.51 283.24L140.12 316.12L82.6504 401.36" stroke="white" stroke-width="2" stroke-linecap="round" stroke-linejoin="round"/>
<path d="M16.1797 191.17L56.1397 176.5L135.56 204.32L144.67 190.41L56.6497 159.3L16.1797 191.17Z" stroke="white" stroke-width="2" stroke-linecap="round" stroke-linejoin="round"/>
<path d="M80.4199 26.97L186.66 62.68" stroke="white" stroke-width="2" stroke-linecap="round" stroke-linejoin="round"/>
<path d="M186.66 155.76L121.75 154.24L54.6198 124.32L35.0098 61.1499" stroke="white" stroke-width="2" stroke-linecap="round" stroke-linejoin="round"/>
<path d="M16.1797 191.17L54.6197 124.32" stroke="white" stroke-width="2" stroke-linecap="round" stroke-linejoin="round"/>
<path d="M52.0997 239.22L16.1797 191.17L63.2197 223.54L71.3197 209.38L96.8697 200.78L135.56 232.65L98.1297 246.31L58.1697 232.65L85.9897 253.78H109.52L135.56 232.65H58.1697" stroke="white" stroke-width="2" stroke-linecap="round" stroke-linejoin="round"/>
<path d="M73.9102 342.73H121.75" stroke="white" stroke-width="2" stroke-linecap="round" stroke-linejoin="round"/>
<path d="M1 239.73L55.84 315.71L121.75 414.26L33.29 383.42" stroke="white" stroke-width="2" stroke-linecap="round" stroke-linejoin="round"/>
<path d="M32.3701 240.74V283.19" stroke="white" stroke-width="2" stroke-linecap="round" stroke-linejoin="round"/>
<path d="M17.1904 288.29L29.7305 320.54L82.6505 401.36L24.6705 355.44" stroke="white" stroke-width="2" stroke-linecap="round" stroke-linejoin="round"/>
<path d="M159.71 286.11L121.75 414.26L160.86 355.45" stroke="white" stroke-width="2" stroke-linecap="round" stroke-linejoin="round"/>
<path d="M160.86 339.06L186.66 353.61" stroke="white" stroke-width="2" stroke-linecap="round" stroke-linejoin="round"/>
<path d="M140.12 316.12L145.63 333.65V350.18L160.86 355.45L156.75 342.73L186.66 360.6" stroke="white" stroke-width="2" stroke-linecap="round" stroke-linejoin="round"/>
<path d="M152.13 311.71L160.86 317.82" stroke="white" stroke-width="2" stroke-linecap="round" stroke-linejoin="round"/>
<path d="M170.1 350.71V396.3" stroke="white" stroke-width="2" stroke-linecap="round" stroke-linejoin="round"/>
<path d="M121.75 503.22L113.75 472.9L122.89 459.19L103 429.36L121.75 414.26L156.49 440.65L167.97 440.89L122.89 459.19" stroke="white" stroke-width="2" stroke-linecap="round" stroke-linejoin="round"/>
<path d="M139.36 517.42L132.03 490.15L152.13 458.74" stroke="white" stroke-width="2" stroke-linecap="round" stroke-linejoin="round"/>
<path d="M186.66 458.74H122.89" stroke="white" stroke-width="2" stroke-linecap="round" stroke-linejoin="round"/>
<path d="M186.66 464.15L164.66 472.28L151.27 495.43L166.95 522.51" stroke="white" stroke-width="2" stroke-linecap="round" stroke-linejoin="round"/>
<path d="M170.1 522.51L186.66 508.95L178.38 522.51" stroke="white" stroke-width="2" stroke-linecap="round" stroke-linejoin="round"/>
<path d="M186.66 441.18L167.97 440.89L160.86 428.64L181.17 357.71" stroke="white" stroke-width="2" stroke-linecap="round" stroke-linejoin="round"/>
<path d="M186.66 403.35L170.1 396.3L121.75 414.26H154.21L161.97 410.54L186.69 426.37" stroke="white" stroke-width="2" stroke-linecap="round" stroke-linejoin="round"/>
<path d="M135.56 204.32L160.86 239.73V339.06L168.45 309.03V225.06L121.75 154.24L151.33 50.8" stroke="white" stroke-width="2" stroke-linecap="round" stroke-linejoin="round"/>
<path d="M135.56 239.73H147.59L142.53 226.86L99.6397 191.73H16.1797" stroke="white" stroke-width="2" stroke-linecap="round" stroke-linejoin="round"/>
<path d="M186.66 4.5H263.04L357.14 75.32V191.17L372.31 239.73L356.12 288.29L355.62 332.81L330.83 413.24L290.36 471.93L227.63 522.51H186.66" stroke="white" stroke-width="2" stroke-linecap="round" stroke-linejoin="round"/>
<path d="M321.22 225.06L340.95 240.74L261.21 495.43" stroke="white" stroke-width="2" stroke-linecap="round" stroke-linejoin="round"/>
<path d="M268.61 283.24L212.46 239.73L242.81 283.24L233.2 316.12L290.66 401.36" stroke="white" stroke-width="2" stroke-linecap="round" stroke-linejoin="round"/>
<path d="M357.141 191.17L317.171 176.5L237.751 204.32L228.641 190.41L316.671 159.3L357.141 191.17Z" stroke="white" stroke-width="2" stroke-linecap="round" stroke-linejoin="round"/>
<path d="M292.89 26.97L186.66 62.68" stroke="white" stroke-width="2" stroke-linecap="round" stroke-linejoin="round"/>
<path d="M186.66 155.76L251.56 154.24L318.69 124.32L338.3 61.1499" stroke="white" stroke-width="2" stroke-linecap="round" stroke-linejoin="round"/>
<path d="M357.141 191.17L318.69 124.32" stroke="white" stroke-width="2" stroke-linecap="round" stroke-linejoin="round"/>
<path d="M321.22 239.22L357.14 191.17L310.09 223.54L302 209.38L276.45 200.78L237.75 232.65L275.19 246.31L315.15 232.65L287.33 253.78H263.8L237.75 232.65H315.15" stroke="white" stroke-width="2" stroke-linecap="round" stroke-linejoin="round"/>
<path d="M299.401 342.73H251.561" stroke="white" stroke-width="2" stroke-linecap="round" stroke-linejoin="round"/>
<path d="M372.311 239.73L317.481 315.71L251.561 414.26L340.021 383.42" stroke="white" stroke-width="2" stroke-linecap="round" stroke-linejoin="round"/>
<path d="M340.95 240.74V283.19" stroke="white" stroke-width="2" stroke-linecap="round" stroke-linejoin="round"/>
<path d="M356.12 288.29L343.59 320.54L290.66 401.36L348.64 355.44" stroke="white" stroke-width="2" stroke-linecap="round" stroke-linejoin="round"/>
<path d="M213.61 286.11L251.56 414.26L212.46 355.45" stroke="white" stroke-width="2" stroke-linecap="round" stroke-linejoin="round"/>
<path d="M212.46 339.06L186.66 353.61" stroke="white" stroke-width="2" stroke-linecap="round" stroke-linejoin="round"/>
<path d="M233.2 316.12L227.69 333.65V350.18L212.46 355.45L216.56 342.73L186.66 360.6" stroke="white" stroke-width="2" stroke-linecap="round" stroke-linejoin="round"/>
<path d="M221.19 311.71L212.46 317.82" stroke="white" stroke-width="2" stroke-linecap="round" stroke-linejoin="round"/>
<path d="M203.21 350.71V396.3" stroke="white" stroke-width="2" stroke-linecap="round" stroke-linejoin="round"/>
<path d="M251.56 503.22L259.57 472.9L250.43 459.19L270.32 429.36L251.56 414.26L216.82 440.65L205.23 440.89L250.43 459.19" stroke="white" stroke-width="2" stroke-linecap="round" stroke-linejoin="round"/>
<path d="M233.95 517.42L241.29 490.15L221.19 458.74" stroke="white" stroke-width="2" stroke-linecap="round" stroke-linejoin="round"/>
<path d="M186.66 458.74H250.43" stroke="white" stroke-width="2" stroke-linecap="round" stroke-linejoin="round"/>
<path d="M186.66 464.15L208.47 472.28L222.05 495.71L206.83 521.98" stroke="white" stroke-width="2" stroke-linecap="round" stroke-linejoin="round"/>
<path d="M203.21 522.51L186.66 508.95L194.93 522.51" stroke="white" stroke-width="2" stroke-linecap="round" stroke-linejoin="round"/>
<path d="M186.66 441.18L205.23 440.89L212.46 428.64L192.15 357.71" stroke="white" stroke-width="2" stroke-linecap="round" stroke-linejoin="round"/>
<path d="M186.66 403.35L203.21 396.3L251.56 414.26H219.11L211.35 410.54L186.69 426.37" stroke="white" stroke-width="2" stroke-linecap="round" stroke-linejoin="round"/>
<path d="M237.75 204.32L212.46 239.73V339.06L204.87 309.03V225.06L251.56 154.24L221.99 50.8" stroke="white" stroke-width="2" stroke-linecap="round" stroke-linejoin="round"/>
<path d="M237.75 239.73H225.72L230.79 226.86L273.67 191.73H357.14" stroke="white" stroke-width="2" stroke-linecap="round" stroke-linejoin="round"/>
</g>
<g opacity="0.6">
<path d="M156.8 426.6L172.24 453.25" stroke="#A1D000" stroke-width="8" stroke-miterlimit="10" stroke-linecap="round"/>
<path d="M216.58 426.6L200.84 453.25" stroke="#A1D000" stroke-width="8" stroke-miterlimit="10" stroke-linecap="round"/>
<path d="M172.51 399.49L156.8 426.6" stroke="#A1D000" stroke-width="8" stroke-miterlimit="10" stroke-linecap="round"/>
<path d="M200.88 399.49L186.71 424.01" stroke="#A1D000" stroke-width="8" stroke-miterlimit="10" stroke-linecap="round"/>
<path d="M200.88 399.49L216.58 426.6" stroke="#A1D000" stroke-width="8" stroke-miterlimit="10" stroke-linecap="round"/>
<path d="M172.51 399.49L186.71 424.01" stroke="#A1D000" stroke-width="8" stroke-miterlimit="10" stroke-linecap="round"/>
</g>
<g opacity="0.6">
<path d="M157.88 343.8L186.61 360.52" stroke="#A1D000" stroke-width="8" stroke-miterlimit="10" stroke-linecap="round"/>
<path d="M186.61 360.52L215.4 343.8" stroke="#A1D000" stroke-width="8" stroke-miterlimit="10" stroke-linecap="round"/>
<path d="M157.88 343.8V310.57" stroke="#A1D000" stroke-width="8" stroke-miterlimit="10" stroke-linecap="round"/>
<path d="M186.61 360.52V327.16" stroke="#A1D000" stroke-width="8" stroke-miterlimit="10" stroke-linecap="round"/>
<path d="M215.4 343.8L215.29 310.57" stroke="#A1D000" stroke-width="8" stroke-miterlimit="10" stroke-linecap="round"/>
</g>
<g opacity="0.6">
<path d="M169.05 464.68L151.27 495.43" stroke="#A1D000" stroke-width="8" stroke-miterlimit="10" stroke-linecap="round"/>
<path d="M222.049 495.71L204.229 526.47" stroke="#A1D000" stroke-width="8" stroke-miterlimit="10" stroke-linecap="round"/>
<path d="M204.069 464.68L222.049 495.71" stroke="#A1D000" stroke-width="8" stroke-miterlimit="10" stroke-linecap="round"/>
<path d="M151.27 495.43L169.24 526.47" stroke="#A1D000" stroke-width="8" stroke-miterlimit="10" stroke-linecap="round"/>
<path d="M169.05 464.68H204.07" stroke="#A1D000" stroke-width="8" stroke-miterlimit="10" stroke-linecap="round"/>
<path d="M151.27 495.43L222.05 495.71" stroke="#A1D000" stroke-width="8" stroke-miterlimit="10" stroke-linecap="round"/>
</g>
<g opacity="0.6">
<path d="M110.07 4L30 142.21" stroke="#A1D000" stroke-width="8" stroke-miterlimit="10" stroke-linecap="round"/>
<path d="M110.07 4H262.28" stroke="#A1D000" stroke-width="8" stroke-miterlimit="10" stroke-linecap="round"/>
<path d="M186.46 4L186.45 273.32" stroke="#A1D000" stroke-width="8" stroke-miterlimit="10" stroke-linecap="round"/>
<path d="M262.49 4L342.56 142.21" stroke="#A1D000" stroke-width="8" stroke-miterlimit="10" stroke-linecap="round"/>
</g>
</svg>
